<svg viewBox="0 0 800 380" xmlns="http://www.w3.org/2000/svg"
     style="max-width: 100%; height: auto; font-family: 'Pretendard', -apple-system, BlinkMacSystemFont, sans-serif;">
  <rect width="800" height="380" fill="#fafafa" rx="12"/>

  <text x="400" y="35" text-anchor="middle" font-size="14" fill="#6b7280" font-weight="500">
    스테이블코인 시총 구성 (2026년 기준, 약 $200B)
  </text>

  <g transform="rotate(-90 240 200)">
    <circle cx="240" cy="200" r="90" fill="none" stroke="#f3f4f6" stroke-width="55"/>
    <circle cx="240" cy="200" r="90" fill="none" stroke="#2c7a8c" stroke-width="55"
            stroke-dasharray="339.29 565.49" stroke-dashoffset="0"/>
    <circle cx="240" cy="200" r="90" fill="none" stroke="#5fb3a8" stroke-width="55"
            stroke-dasharray="169.65 565.49" stroke-dashoffset="-339.29"/>
    <circle cx="240" cy="200" r="90" fill="none" stroke="#a7d4c1" stroke-width="55"
            stroke-dasharray="56.55 565.49" stroke-dashoffset="-508.94"/>
  </g>

  <text x="240" y="194" text-anchor="middle" font-size="12" fill="#6b7280" font-weight="500">총 시총</text>
  <text x="240" y="217" text-anchor="middle" font-size="22" fill="#1a4d5c" font-weight="700">$200B+</text>

  <g>
    <text x="440" y="100" font-size="12" fill="#9ca3af" font-weight="500" letter-spacing="0.5">구성 비중</text>

    <rect x="440" y="120" width="14" height="14" rx="3" fill="#2c7a8c"/>
    <text x="464" y="132" font-size="14" fill="#2a2a2a" font-weight="600">USDT (Tether)</text>
    <text x="464" y="150" font-size="12" fill="#6b7280">60% · 약 $120B</text>

    <rect x="440" y="178" width="14" height="14" rx="3" fill="#5fb3a8"/>
    <text x="464" y="190" font-size="14" fill="#2a2a2a" font-weight="600">USDC (Circle)</text>
    <text x="464" y="208" font-size="12" fill="#6b7280">30% · 약 $60B</text>

    <rect x="440" y="236" width="14" height="14" rx="3" fill="#a7d4c1"/>
    <text x="464" y="248" font-size="14" fill="#2a2a2a" font-weight="600">기타 (DAI, FDUSD 등)</text>
    <text x="464" y="266" font-size="12" fill="#6b7280">10% · 약 $20B</text>

    <rect x="440" y="295" width="320" height="36" rx="6" fill="#ecf6f3" stroke="#5fb3a8" stroke-width="1"/>
    <text x="600" y="318" text-anchor="middle" font-size="12" fill="#1a4d5c" font-weight="600">
      USDT + USDC = 90%, 사실상 양강 체제
    </text>
  </g>

  <text x="400" y="362" text-anchor="middle" font-size="11" fill="#9ca3af">
    그림 — 스테이블코인 시총 $200B+ 돌파, 결제 수단 신뢰의 임계점
  </text>
</svg>
