<svg viewBox="0 0 900 520" xmlns="http://www.w3.org/2000/svg"
     style="max-width: 100%; height: auto; font-family: 'Pretendard', -apple-system, BlinkMacSystemFont, sans-serif;">
  <rect width="900" height="520" fill="#fafafa" rx="12"/>

  <text x="450" y="35" text-anchor="middle" font-size="14" fill="#6b7280" font-weight="500">
    x402 결제 흐름 (1초 미만 완료)
  </text>

  <defs>
    <marker id="arrMint5" markerWidth="10" markerHeight="10" refX="9" refY="3" orient="auto" markerUnits="strokeWidth">
      <path d="M0,0 L0,6 L9,3 z" fill="#5fb3a8"/>
    </marker>
    <marker id="arrCoral5" markerWidth="10" markerHeight="10" refX="9" refY="3" orient="auto" markerUnits="strokeWidth">
      <path d="M0,0 L0,6 L9,3 z" fill="#b8404d"/>
    </marker>
    <marker id="arrTeal5" markerWidth="10" markerHeight="10" refX="9" refY="3" orient="auto" markerUnits="strokeWidth">
      <path d="M0,0 L0,6 L9,3 z" fill="#2c7a8c"/>
    </marker>
    <marker id="arrGreen5" markerWidth="10" markerHeight="10" refX="9" refY="3" orient="auto" markerUnits="strokeWidth">
      <path d="M0,0 L0,6 L9,3 z" fill="#4a8b6f"/>
    </marker>
  </defs>

  <rect x="40" y="60" width="160" height="50" rx="8" fill="#fdf3ee" stroke="#d97757" stroke-width="1.5"/>
  <text x="62" y="92" font-size="22" fill="#d97757">🤖</text>
  <text x="135" y="84" text-anchor="middle" font-size="13" fill="#2a2a2a" font-weight="600">AI 에이전트</text>
  <text x="135" y="100" text-anchor="middle" font-size="10" fill="#6b7280">결제 주체</text>

  <rect x="240" y="60" width="160" height="50" rx="8" fill="#e8f1f4" stroke="#2c7a8c" stroke-width="1.5"/>
  <text x="262" y="92" font-size="22" fill="#2c7a8c">🖥️</text>
  <text x="335" y="84" text-anchor="middle" font-size="13" fill="#2a2a2a" font-weight="600">API 서버</text>
  <text x="335" y="100" text-anchor="middle" font-size="10" fill="#6b7280">서비스 제공자</text>

  <rect x="440" y="60" width="160" height="50" rx="8" fill="#e8f1f4" stroke="#2c7a8c" stroke-width="1.5"/>
  <text x="462" y="92" font-size="22" fill="#2c7a8c">⚙️</text>
  <text x="535" y="84" text-anchor="middle" font-size="13" fill="#2a2a2a" font-weight="600">Facilitator</text>
  <text x="535" y="100" text-anchor="middle" font-size="10" fill="#6b7280">검증·정산 중개</text>

  <rect x="640" y="60" width="160" height="50" rx="8" fill="#dbe9ed" stroke="#1a4d5c" stroke-width="1.5"/>
  <text x="662" y="92" font-size="22" fill="#1a4d5c">⛓️</text>
  <text x="735" y="84" text-anchor="middle" font-size="13" fill="#2a2a2a" font-weight="600">블록체인</text>
  <text x="735" y="100" text-anchor="middle" font-size="10" fill="#6b7280">L2 (Base 등)</text>

  <line x1="120" y1="116" x2="120" y2="470" stroke="#d1d5db" stroke-width="1" stroke-dasharray="4,4"/>
  <line x1="320" y1="116" x2="320" y2="470" stroke="#d1d5db" stroke-width="1" stroke-dasharray="4,4"/>
  <line x1="520" y1="116" x2="520" y2="470" stroke="#d1d5db" stroke-width="1" stroke-dasharray="4,4"/>
  <line x1="720" y1="116" x2="720" y2="470" stroke="#d1d5db" stroke-width="1" stroke-dasharray="4,4"/>

  <line x1="120" y1="146" x2="320" y2="146" stroke="#5fb3a8" stroke-width="2" marker-end="url(#arrMint5)"/>
  <rect x="135" y="130" width="170" height="22" rx="4" fill="#ecf6f3"/>
  <text x="220" y="145" text-anchor="middle" font-size="11" fill="#1a4d5c" font-weight="500">① GET /api/weather</text>

  <line x1="320" y1="186" x2="120" y2="186" stroke="#b8404d" stroke-width="2" stroke-dasharray="6,3" marker-end="url(#arrCoral5)"/>
  <rect x="135" y="170" width="170" height="22" rx="4" fill="#fdf1f2"/>
  <text x="220" y="185" text-anchor="middle" font-size="11" fill="#b8404d" font-weight="500">② 402 Payment Required</text>

  <rect x="50" y="206" width="140" height="40" rx="6" fill="#fef3c7" stroke="#f59e0b" stroke-width="1"/>
  <text x="120" y="224" text-anchor="middle" font-size="11" fill="#78350f" font-weight="600">결제 서명 생성</text>
  <text x="120" y="238" text-anchor="middle" font-size="10" fill="#78350f">EIP-712 + EIP-3009</text>

  <line x1="120" y1="272" x2="320" y2="272" stroke="#5fb3a8" stroke-width="2" marker-end="url(#arrMint5)"/>
  <rect x="135" y="256" width="170" height="22" rx="4" fill="#ecf6f3"/>
  <text x="220" y="271" text-anchor="middle" font-size="11" fill="#1a4d5c" font-weight="500">③ GET + X-Payment 헤더</text>

  <line x1="320" y1="307" x2="520" y2="307" stroke="#2c7a8c" stroke-width="2" marker-end="url(#arrTeal5)"/>
  <rect x="335" y="291" width="170" height="22" rx="4" fill="#e8f1f4"/>
  <text x="420" y="306" text-anchor="middle" font-size="11" fill="#1a4d5c" font-weight="500">④ 서명 검증·정산 요청</text>

  <line x1="520" y1="342" x2="720" y2="342" stroke="#2c7a8c" stroke-width="2" marker-end="url(#arrTeal5)"/>
  <rect x="535" y="326" width="170" height="22" rx="4" fill="#e8f1f4"/>
  <text x="620" y="341" text-anchor="middle" font-size="11" fill="#1a4d5c" font-weight="500">⑤ 트랜잭션 제출</text>

  <line x1="720" y1="377" x2="520" y2="377" stroke="#4a8b6f" stroke-width="2" stroke-dasharray="6,3" marker-end="url(#arrGreen5)"/>
  <rect x="535" y="361" width="170" height="22" rx="4" fill="#f0f7f3"/>
  <text x="620" y="376" text-anchor="middle" font-size="11" fill="#4a8b6f" font-weight="500">⑥ 블록 확정</text>

  <line x1="520" y1="412" x2="320" y2="412" stroke="#4a8b6f" stroke-width="2" stroke-dasharray="6,3" marker-end="url(#arrGreen5)"/>
  <rect x="335" y="396" width="170" height="22" rx="4" fill="#f0f7f3"/>
  <text x="420" y="411" text-anchor="middle" font-size="11" fill="#4a8b6f" font-weight="500">⑦ 정산 완료 응답</text>

  <line x1="320" y1="447" x2="120" y2="447" stroke="#4a8b6f" stroke-width="2" marker-end="url(#arrGreen5)"/>
  <rect x="135" y="431" width="170" height="22" rx="4" fill="#f0f7f3"/>
  <text x="220" y="446" text-anchor="middle" font-size="11" fill="#4a8b6f" font-weight="500">⑧ 200 OK + 데이터</text>

  <text x="450" y="500" text-anchor="middle" font-size="11" fill="#9ca3af">
    그림 — x402 결제 흐름. 8단계 전체가 1초 미만에 완료됨
  </text>
</svg>
